# xmcd
#
# Track frame offsets:
#	150
#	9568
#	24644
#	36587
#	47774
#	53977
#	67069
#	79541
#	88600
#	100212
#	112538
#
# Disc length: 1760 seconds
#
# Revision: 1
# Processed by: cddbd v1.5.1PL2 Copyright (c) Steve Scherf et al.
# Submitted via: audiograbber 1.80
#
DISCID=8606de0b
DTITLE=Optiker Berglund - Sings Randy Newman
DYEAR=1900
DGENRE=
TTITLE0=You've Got A Friend In Me
TTITLE1=I Love L.A
TTITLE2=I'll Be Home
TTITLE3=Lonely At The Top
TTITLE4=Maybe I'm Doing It Wrong
TTITLE5=You Can Leave Your Hat On
TTITLE6=Can't Keep A Good Man Down
TTITLE7=Beat Me Baby
TTITLE8=Have You Seen My Baby?
TTITLE9=Guilty
TTITLE10=Feels Like Home
EXTD=
EXTT0=
EXTT1=
EXTT2=
EXTT3=
EXTT4=
EXTT5=
EXTT6=
EXTT7=
EXTT8=
EXTT9=
EXTT10=
PLAYORDER=
